<svg xmlns="http://www.w3.org/2000/svg" viewBox="0 0 114.94 40.73"><defs><style>.a{fill:#000;}</style></defs><title>team_Logo</title><rect class="a" x="20.73" y="37.75" width="8.58" height="2.99"/><rect class="a" x="20.73" y="32.94" width="8.58" height="3.03"/><path class="a" d="M91.86,23.32A9.52,9.52,0,0,0,96.13,21a5.82,5.82,0,0,0,1.71-4.41,7.46,7.46,0,0,0-1.8-5,8.89,8.89,0,0,0-5-2.79A46.39,46.39,0,0,0,82,8.13H60.38L55.45,20.72,50.65,8.13H0v7.8H3.16v17H0v7.8H19.05v-7.8H15.77V28.36h5.09a29,29,0,0,0,8.91-1A10.24,10.24,0,0,0,33.56,25v7.89H31.05v7.8H43.69v-7.8H41.11V15l9.75,25.78h4.88l9.17-24.24V32.93H62.07v7.8H80.52A58.08,58.08,0,0,0,91.13,40a10.26,10.26,0,0,0,5.79-3A8,8,0,0,0,99,31.45a7.43,7.43,0,0,0-1.87-4.95A10.88,10.88,0,0,0,91.86,23.32ZM22,20.79a8.58,8.58,0,0,1-3.75.61H15.77V15.28h2a16.51,16.51,0,0,1,3.19.21,2.58,2.58,0,0,1,1.57,1,3.11,3.11,0,0,1,.61,1.95A2.44,2.44,0,0,1,22,20.79ZM84.1,16.2a3.11,3.11,0,0,1,.77,2.06A2.87,2.87,0,0,1,84,20.41q-.89.82-3.73.82H77.52v-6h2.34Q83.33,15.28,84.1,16.2Zm.16,16.69a8.11,8.11,0,0,1-3.91.7H77.52V27.16h2.79q3,0,4.08.77a2.89,2.89,0,0,1,1.05,2.46A2.66,2.66,0,0,1,84.27,32.88Z"/><path class="a" d="M110.42,11.7l-.07,1.41h-5a16.08,16.08,0,0,1,4.08-2.18,12.33,12.33,0,0,0,4.31-2.72,4.39,4.39,0,0,0,1.1-2.88,4.5,4.5,0,0,0-2.16-3.87A10.4,10.4,0,0,0,106.86,0c-5.11,0-7.71,2.1-7.75,6.13h5.58a4.28,4.28,0,0,1,0-.48q0-1.73,1.85-1.73t1.71,1.15a1.76,1.76,0,0,1-.68,1.24,24.63,24.63,0,0,1-3.26,2.27,13,13,0,0,0-4.24,3.87,8.13,8.13,0,0,0-1.2,4.38l0,.94h15.84l.19-6.07Z"/></svg>